# xmcd CD database file
#
# Track frame offsets:
#	150
#	15167
#	34995
#	51851
#	63055
#	78851
#	94017
#	106036
#	120494
#	140697
#
# Disc length: 2099 seconds
#
# Revision: 3
# Processed by: cddbd v1.5.2PL0 Copyright (c) Steve Scherf et al.
# Submitted via: CDex 2.21
#
DISCID=6f08310a
DTITLE=Kelly Willis and Bruce Robison - Beautiful Lie
DYEAR=2019
DGENRE=Country
TTITLE0=If I Had a Rose
TTITLE1=Astrodome
TTITLE2=Nobody's Perfect
TTITLE3=One Dime at a Time
TTITLE4=Beautiful Lie
TTITLE5=Can't Tell Nobody Nothin'
TTITLE6=Coming Down
TTITLE7=Lost My Best
TTITLE8=Brand New Me
TTITLE9=Heartache to Houston
EXTD=YEAR: 2019
EXTT0=
EXTT1=
EXTT2=
EXTT3=
EXTT4=
EXTT5=
EXTT6=
EXTT7=
EXTT8=
EXTT9=
PLAYORDER=
